<?xml version="1.0" encoding="UTF-8"?>
<svg version="1.1" xmlns="http://www.w3.org/2000/svg" width="432" height="432">
<path d="M0 0 C142.56 0 285.12 0 432 0 C432 142.56 432 285.12 432 432 C289.44 432 146.88 432 0 432 C0 289.44 0 146.88 0 0 Z " fill="#BF360C" transform="translate(0,0)"/>
<path d="M0 0 C30.69 0 61.38 0 93 0 C93 18.30444287 93 18.30444287 86.23828125 26.12109375 C82.38078683 30.69997714 78.80045292 35.47740297 75.1875 40.25 C73.79561631 42.06774156 72.40368931 43.88544996 71.01171875 45.703125 C67.42570465 50.41184326 63.941135 55.18478197 60.5 60 C55.12179342 67.52578359 49.55944494 74.89739918 43.90625 82.21875 C38.41056074 89.36428386 33.25252594 96.64646369 28 104 C62.155 104.495 62.155 104.495 97 105 C97 110.94 97 116.88 97 123 C64.66 123 32.32 123 -1 123 C-1 103.52135083 -1 103.52135083 5.375 96.8125 C6.67939637 95.29625763 7.98146647 93.77801103 9.28125 92.2578125 C9.92191406 91.53368164 10.56257812 90.80955078 11.22265625 90.06347656 C13.65360791 87.2411684 15.77111038 84.25669832 17.875 81.1875 C22.08776862 75.16607553 26.52851415 69.33106972 31 63.5 C35.44234463 57.7040764 39.84582272 51.89998023 44.0625 45.9375 C50.54002369 36.83616924 57.29736526 27.93684632 64 19 C32.32 18.505 32.32 18.505 0 18 C0 12.06 0 6.12 0 0 Z " fill="#FEFCFC" transform="translate(168,155)"/>
</svg>
